<?xml version="1.0" standalone="no"?>
<!DOCTYPE svg PUBLIC "-//W3C//DTD SVG 20010904//EN"
 "http://www.w3.org/TR/2001/REC-SVG-20010904/DTD/svg10.dtd">
<svg version="1.0" xmlns="http://www.w3.org/2000/svg"
 width="225.000000pt" height="225.000000pt" viewBox="0 0 225.000000 225.000000"
 preserveAspectRatio="xMidYMid meet">

<g transform="translate(0.000000,225.000000) scale(0.100000,-0.100000)"
fill="#000000" stroke="none">
<path d="M832 1631 l-294 -147 49 -15 48 -15 3 -112 c2 -102 1 -115 -19 -141
-21 -28 -21 -31 -5 -55 11 -17 16 -47 16 -96 0 -68 1 -70 25 -70 25 0 25 1 25
79 0 44 5 83 10 86 17 11 11 54 -10 67 -18 12 -20 24 -20 125 l0 112 60 -21
60 -20 0 -69 c0 -38 4 -69 8 -69 5 0 17 9 27 20 52 57 179 114 283 125 113 13
268 -35 349 -109 22 -20 43 -36 47 -36 3 0 6 31 6 69 l0 69 121 38 121 38
-293 147 c-162 82 -301 148 -309 148 -8 0 -147 -66 -308 -148z"/>
<path d="M1247 1278 c29 -52 144 -161 201 -191 29 -16 56 -27 58 -24 10 10
-39 91 -83 138 -42 45 -148 109 -180 109 -11 0 -10 -7 4 -32z"/>
<path d="M843 1183 c-21 -27 -46 -67 -57 -90 l-18 -42 48 -73 c100 -151 244
-280 403 -362 l88 -45 50 34 c27 18 62 48 78 66 l27 33 -23 9 c-13 5 -64 29
-114 52 -185 89 -320 221 -411 403 l-32 64 -39 -49z"/>
<path d="M754 875 c25 -176 179 -320 354 -332 l67 -5 -59 37 c-124 76 -247
188 -331 300 l-38 50 7 -50z"/>
</g>
</svg>
